HIERARCHY
ROOT Hips
{
    OFFSET 9.729913711547852 89.9713363647461 -18.058277130126953
    CHANNELS 6 Xposition Yposition Zposition Zrotation Xrotation Yrotation
    JOINT RightUpLeg
    {
        OFFSET -9.729913711547852 0.0 0.0
        CHANNELS 3 Zrotation Xrotation Yrotation
        JOINT RightLeg
        {
            OFFSET 0.0 -44.825645446777344 0.0
            CHANNELS 3 Zrotation Xrotation Yrotation
            JOINT RightFoot
            {
                OFFSET 0.0 -45.14569091796875 0.0
                CHANNELS 3 Zrotation Xrotation Yrotation
                End Site
                {
                    OFFSET 0.0 0.0 18.058277130126953
                }
            }
        }
    }
    JOINT LeftUpLeg
    {
        OFFSET 9.729913711547852 0.0 0.0
        CHANNELS 3 Zrotation Xrotation Yrotation
        JOINT LeftLeg
        {
            OFFSET 0.0 -44.825645446777344 0.0
            CHANNELS 3 Zrotation Xrotation Yrotation
            JOINT LeftFoot
            {
                OFFSET 0.0 -45.14569091796875 0.0
                CHANNELS 3 Zrotation Xrotation Yrotation
                End Site
                {
                    OFFSET 0.0 0.0 18.058277130126953
                }
            }
        }
    }
    JOINT Spine
    {
        OFFSET 0.0 23.505029678344727 0.0
        CHANNELS 3 Zrotation Xrotation Yrotation
        JOINT Spine3
        {
            OFFSET 0.0 25.11911392211914 0.0
            CHANNELS 3 Zrotation Xrotation Yrotation
            JOINT Neck
            {
                OFFSET 0.0 10.603590965270996 0.0
                CHANNELS 3 Zrotation Xrotation Yrotation
                End Site
                {
                    OFFSET 0.0 4.24143648147583 0.0
                }
            }
            JOINT LeftArm
            {
                OFFSET 11.02685546875 0.0 0.0
                CHANNELS 3 Zrotation Xrotation Yrotation
                JOINT LeftForeArm
                {
                    OFFSET 27.139904022216797 0.0 0.0
                    CHANNELS 3 Zrotation Xrotation Yrotation
                    JOINT LeftHand
                    {
                        OFFSET 18.099136352539062 0.0 0.0
                        CHANNELS 3 Zrotation Xrotation Yrotation
                        End Site
                        {
                            OFFSET 7.239654064178467 0.0 0.0
                        }
                    }
                }
            }
            JOINT RightArm
            {
                OFFSET -11.02685546875 0.0 0.0
                CHANNELS 3 Zrotation Xrotation Yrotation
                JOINT RightForeArm
                {
                    OFFSET -27.139904022216797 0.0 0.0
                    CHANNELS 3 Zrotation Xrotation Yrotation
                    JOINT RightHand
                    {
                        OFFSET -18.099136352539062 0.0 0.0
                        CHANNELS 3 Zrotation Xrotation Yrotation
                        End Site
                        {
                            OFFSET -7.239654064178467 0.0 0.0
                        }
                    }
                }
            }
        }
    }
}
MOTION
Frames: 6
Frame Time: 0.03333333333333333
0.00010804024350363761 89.93924713134766 -0.0011968426406383514 -1.536881998290137 -8.37168638671923 -20.073929958783417 1.2335855888981084 19.578272193210225 -1.4511760266884193 -0.349710768507342 8.213517220234046 -0.5319507995911649 1.6552148617688095e-32 -3.1805546814635164e-15 5.963540027744093e-16 1.9424090591325593 16.56327677049804 -1.4480597514891294 -2.088769070742873 10.4471838355204 -0.5033092759253875 -7.951386703658792e-16 5.517382872562698e-33 -7.951386703658792e-16 -1.2702985982057673 20.195072607293056 -0.6345406633363422 2.370182818962315e-07 -1.0900769650363463e-06 -0.7441371897169268 6.59548099828446 9.137488685395034 179.05063654261582 111.53502408976414 -14.996599322529006 -177.64349696568465 5.472058144590879e-06 1.442882111364822e-06 20.916343340907336 -1.3517357396219944e-14 7.50364070668527e-31 -6.361109362927033e-15 -115.42868340277094 -20.79163645342843 174.67607839213127 -2.2917615053080966e-06 6.6832762552934494e-09 -30.898325083846682 7.355032700884382e-15 1.5902773407317584e-15 -1.020715831424099e-31
0.00010024022776633501 89.93927001953125 -0.0011945838341489434 -1.6570849544196409 -8.192574156746968 -20.03422780336974 1.12470300443561 19.317666284612844 -1.3538934372739526 -0.17416793662804234 8.247644279491743 -0.5282011467047003 0.0 0.0 1.1927080055488188e-15 2.0226355027025633 16.61767440636648 -1.439142566815953 -2.2225985379462805 10.511492946289497 -0.4733971185765043 7.951386703658791e-16 9.939233379573487e-17 -1.2921003393445536e-15 -0.9322280296728391 20.10221631351944 -0.7041450157026491 1.7946315798002642e-07 -6.022771474112606e-07 -0.719674323565999 6.035135947605296 9.016138895383438 178.478586767811 111.96674009796294 -14.947282356342214 -177.8956495331364 -7.152546743111408e-07 5.616659590719912e-06 21.185047280443598 2.3854160110976376e-15 3.1805546814635168e-15 -6.620859447075238e-32 -115.97210365852042 -20.44217930076277 174.71138829285542 -4.873865937890729e-07 -3.0046618557321465e-06 -30.783483442724414 5.963540027744094e-16 -8.276074308844047e-33 -1.5902773407317584e-15
0.00011375250323908404 89.93934631347656 -0.0012045798357576132 -1.8536181774258726 -8.16356462099419 -19.922938116365497 1.124875287201224 19.33934187560139 -1.322086712348722 0.08040186849190079 8.240295493825615 -0.5507156542193953 7.951386703658791e-16 -1.9878466759146977e-16 1.2921003393445536e-15 2.0269021876102586 16.796413435902345 -1.4265305538376543 -2.299167429200665 10.536426806705224 -0.4429962130970657 -1.5902773407317582e-15 9.655420026984722e-33 -6.957463365701442e-16 -0.5670482023987189 20.105919941994078 -0.7956306588118068 3.6810163686488493e-07 1.1046472911626987e-07 -0.737599990083383 5.4738420803240215 9.01734744374356 178.45076328897906 112.6620012058854 -13.485143180523318 -178.42310391448345 -2.4737024896057266e-06 1.7445117808349504e-06 21.722742281603256 -7.951386703658792e-16 -3.1805546814635168e-15 -2.2069531490250793e-32 -116.2309618667728 -19.10293793128071 174.98064324446207 -1.2909693785119773e-06 1.2594752010293384e-06 -30.526919872280235 2.683593012484842e-15 1.5902773407317584e-15 -1.5902773407317584e-15
0.00014327956887427717 89.93941497802734 -0.001216129050590098 -2.1160063492612986 -8.243011704748213 -19.68215569288864 1.1442733412168529 19.560817903832923 -1.3115803263337014 0.09159458176138029 8.163237883119558 -0.5364414235787599 7.951386703658792e-16 -2.758691436281349e-33 -3.975693351829396e-16 2.0379498338771773 17.083508518177418 -1.425870610540059 -2.1539664102155887 10.388729540885864 -0.44759534974480375 -7.951386703658792e-16 9.93923337957349e-17 -9.93923337957349e-17 -0.1803668294594336 20.22877927732791 -0.901790484043677 -2.933091393853456e-07 2.530011088716632e-07 -0.6127254858052921 5.541258014118927 8.914492754382238 178.9999275840534 113.34879557301565 -12.561347970464807 -178.84155012627016 -4.750548061037898e-07 -4.3201036646820785e-06 22.37777462003403 7.951386703658791e-16 2.2069531490250793e-32 3.1805546814635164e-15 -116.39730496509561 -17.862643499706593 175.2667634342854 -4.687709029395725e-06 -5.384032613752184e-07 -30.607568509998973 5.9635400277440935e-15 0.0 0.0
0.00013434897118713707 89.93946075439453 -0.001223074272274971 -2.290660418917164 -8.352815054114435 -19.440391057290846 0.9321443314348415 19.605291575375876 -1.231313372351599 0.4635695774028013 8.261935438832886 -0.5628456875612236 -7.951386703658792e-16 -9.93923337957349e-17 -1.987846675914698e-16 1.7625504007400872 17.30976780852221 -1.351266837413604 -1.8347274999455416 10.451837463738418 -0.4534910897127742 -3.975693351829396e-16 3.793200724886855e-33 -1.0933156717530838e-15 0.16743323324114034 20.30828010244669 -1.0140389971749273 3.7955301311281193e-07 -1.5350084469855292e-06 -0.6347743863341093 5.4922469993636485 8.853709343157627 178.9734999583411 113.83823677044231 -11.180653998178936 -179.01663300394597 3.056603640236506e-06 -2.5110514592733034e-07 22.75321783020852 9.54166404439055e-15 0.0 0.0 -116.85639836245727 -17.496788449074643 175.32371435259856 2.212129391975827e-06 4.183620936174727e-06 -30.832140329932294 -2.385416011097637e-15 0.0 0.0
0.00014987991016823798 89.93948364257812 -0.0012293432373553514 -2.484717192460274 -8.447675240998109 -19.1585552646771 1.0425067912296342 19.86741749928168 -1.2504097007659003 0.2856264779733605 8.32959856390334 -0.5420308109693451 -7.758819664541295e-34 9.93923337957349e-17 8.945310041616142e-16 1.7367364761144604 17.383211821396785 -1.3189279641772484 -1.7199627716422126 10.307863642888888 -0.4459974592722404 3.9756933518293955e-16 -1.034509288605506e-33 -2.9817700138720465e-16 0.3987333881395754 20.440327052364818 -1.0661395317612554 -2.567190094748269e-09 -3.7567117151556936e-07 -0.7448666493910723 5.727784266272068 8.908739894473163 179.16829104003378 114.44448985700271 -11.378542355134497 -178.90353242064123 -2.075146518666767e-06 -9.199376741761707e-06 22.716229770620618 -2.3854160110976376e-15 -3.1805546814635168e-15 -3.1805546814635168e-15 -117.04958350042698 -16.774438671472414 175.38157425834152 -4.637815569740811e-06 -2.13508776979928e-06 -30.918448103319733 8.74652537402467e-15 1.2138242319637935e-31 1.5902773407317584e-15
